0
SECTION
2
HEADER
9
$ACADVER
1
AC1015
9
$INSUNITS
70
4
9
$MEASUREMENT
70
1
9
$EXTMIN
10
-100
20
-110
30
0
9
$EXTMAX
10
100
20
110
30
0
0
ENDSEC
0
SECTION
2
ENTITIES
0
LWPOLYLINE
100
AcDbEntity
8
CUT
100
AcDbPolyline
90
60
70
1
10
-88.0
20
-110.0
10
-89.318489
20
-109.927346
10
-90.621013
20
-109.710264
10
-91.891799
20
-109.351383
10
-93.115459
20
-108.855049
10
-94.277176
20
-108.227271
10
-95.362883
20
-107.475651
10
-96.359433
20
-106.60929
10
-97.254759
20
-105.63868
10
-98.038019
20
-104.575574
10
-98.699729
20
-103.432844
10
-99.231877
20
-102.224328
10
-99.628018
20
-100.964659
10
-99.883355
20
-99.669092
10
-100.0
20
-98.0
10
-100.0
20
98.0
10
-99.927346
20
99.318489
10
-99.710264
20
100.621013
10
-99.351383
20
101.891799
10
-98.855049
20
103.115459
10
-98.227271
20
104.277176
10
-97.475651
20
105.362883
10
-96.60929
20
106.359433
10
-95.63868
20
107.254759
10
-94.575574
20
108.038019
10
-93.432844
20
108.699729
10
-92.224328
20
109.231877
10
-90.964659
20
109.628018
10
-89.669092
20
109.883355
10
-88.0
20
110.0
10
88.0
20
110.0
10
89.318489
20
109.927346
10
90.621013
20
109.710264
10
91.891799
20
109.351383
10
93.115459
20
108.855049
10
94.277176
20
108.227271
10
95.362883
20
107.475651
10
96.359433
20
106.60929
10
97.254759
20
105.63868
10
98.038019
20
104.575574
10
98.699729
20
103.432844
10
99.231877
20
102.224328
10
99.628018
20
100.964659
10
99.883355
20
99.669092
10
100.0
20
98.0
10
100.0
20
-98.0
10
99.927346
20
-99.318489
10
99.710264
20
-100.621013
10
99.351383
20
-101.891799
10
98.855049
20
-103.115459
10
98.227271
20
-104.277176
10
97.475651
20
-105.362883
10
96.60929
20
-106.359433
10
95.63868
20
-107.254759
10
94.575574
20
-108.038019
10
93.432844
20
-108.699729
10
92.224328
20
-109.231877
10
90.964659
20
-109.628018
10
89.669092
20
-109.883355
10
88.0
20
-110.0
0
LWPOLYLINE
100
AcDbEntity
8
CUT
100
AcDbPolyline
90
28
70
1
10
90.5
20
-55.5
10
90.427625
20
-54.902808
10
90.214689
20
-54.340193
10
89.873523
20
-53.844732
10
89.423879
20
-53.445111
10
88.891792
20
-53.164468
10
88.30807
20
-53.019054
10
87.70651
20
-53.017287
10
87.121944
20
-53.15927
10
86.588218
20
-53.436781
10
86.136234
20
-53.833754
10
85.792162
20
-54.327203
10
85.575926
20
-54.888557
10
85.5
20
-55.5
10
85.5
20
-74.5
10
85.572375
20
-75.097192
10
85.785311
20
-75.659807
10
86.126477
20
-76.155268
10
86.576121
20
-76.554889
10
87.108208
20
-76.835532
10
87.69193
20
-76.980946
10
88.29349
20
-76.982713
10
88.878056
20
-76.84073
10
89.411782
20
-76.563219
10
89.863766
20
-76.166246
10
90.207838
20
-75.672797
10
90.424074
20
-75.111443
10
90.5
20
-74.5
0
LWPOLYLINE
100
AcDbEntity
8
CUT
100
AcDbPolyline
90
25
70
1
10
70.3
20
-55.0
10
70.227655
20
-54.427678
10
70.015172
20
-53.89136
10
69.675917
20
-53.424785
10
69.231233
20
-53.057305
10
68.709094
20
-52.812036
10
68.142346
20
-52.704409
10
67.566644
20
-52.741194
10
67.018204
20
-52.920078
10
66.531527
20
-53.229806
10
66.137229
20
-53.650895
10
65.860116
20
-54.156853
10
65.71762
20
-54.715853
10
65.718704
20
-55.292728
10
65.863302
20
-55.851188
10
66.142316
20
-56.356101
10
66.538195
20
-56.775704
10
67.026033
20
-57.0836
10
67.575142
20
-57.260419
10
68.150979
20
-57.295039
10
68.717317
20
-57.185282
10
69.23853
20
-56.938051
10
69.681829
20
-56.568901
10
70.019327
20
-56.101053
10
70.229792
20
-55.56394
0
LWPOLYLINE
100
AcDbEntity
8
CUT
100
AcDbPolyline
90
28
70
1
10
32.5
20
-55.5
10
32.427625
20
-54.902808
10
32.214689
20
-54.340193
10
31.873523
20
-53.844732
10
31.423879
20
-53.445111
10
30.891792
20
-53.164468
10
30.30807
20
-53.019054
10
29.70651
20
-53.017287
10
29.121944
20
-53.15927
10
28.588218
20
-53.436781
10
28.136234
20
-53.833754
10
27.792162
20
-54.327203
10
27.575926
20
-54.888557
10
27.5
20
-55.5
10
27.5
20
-74.5
10
27.572375
20
-75.097192
10
27.785311
20
-75.659807
10
28.126477
20
-76.155268
10
28.576121
20
-76.554889
10
29.108208
20
-76.835532
10
29.69193
20
-76.980946
10
30.29349
20
-76.982713
10
30.878056
20
-76.84073
10
31.411782
20
-76.563219
10
31.863766
20
-76.166246
10
32.207838
20
-75.672797
10
32.424074
20
-75.111443
10
32.5
20
-74.5
0
LWPOLYLINE
100
AcDbEntity
8
CUT
100
AcDbPolyline
90
28
70
1
10
20.5
20
-55.5
10
20.427625
20
-54.902808
10
20.214689
20
-54.340193
10
19.873523
20
-53.844732
10
19.423879
20
-53.445111
10
18.891792
20
-53.164468
10
18.30807
20
-53.019054
10
17.70651
20
-53.017287
10
17.121944
20
-53.15927
10
16.588218
20
-53.436781
10
16.136234
20
-53.833754
10
15.792162
20
-54.327203
10
15.575926
20
-54.888557
10
15.5
20
-55.5
10
15.5
20
-74.5
10
15.572375
20
-75.097192
10
15.785311
20
-75.659807
10
16.126477
20
-76.155268
10
16.576121
20
-76.554889
10
17.108208
20
-76.835532
10
17.69193
20
-76.980946
10
18.29349
20
-76.982713
10
18.878056
20
-76.84073
10
19.411782
20
-76.563219
10
19.863766
20
-76.166246
10
20.207838
20
-75.672797
10
20.424074
20
-75.111443
10
20.5
20
-74.5
0
LWPOLYLINE
100
AcDbEntity
8
CUT
100
AcDbPolyline
90
28
70
1
10
90.5
20
-15.5
10
90.427625
20
-14.902808
10
90.214689
20
-14.340193
10
89.873523
20
-13.844732
10
89.423879
20
-13.445111
10
88.891792
20
-13.164468
10
88.30807
20
-13.019054
10
87.70651
20
-13.017287
10
87.121944
20
-13.15927
10
86.588218
20
-13.436781
10
86.136234
20
-13.833754
10
85.792162
20
-14.327203
10
85.575926
20
-14.888557
10
85.5
20
-15.5
10
85.5
20
-34.5
10
85.572375
20
-35.097192
10
85.785311
20
-35.659807
10
86.126477
20
-36.155268
10
86.576121
20
-36.554889
10
87.108208
20
-36.835532
10
87.69193
20
-36.980946
10
88.29349
20
-36.982713
10
88.878056
20
-36.84073
10
89.411782
20
-36.563219
10
89.863766
20
-36.166246
10
90.207838
20
-35.672797
10
90.424074
20
-35.111443
10
90.5
20
-34.5
0
LWPOLYLINE
100
AcDbEntity
8
CUT
100
AcDbPolyline
90
28
70
1
10
32.5
20
-15.5
10
32.427625
20
-14.902808
10
32.214689
20
-14.340193
10
31.873523
20
-13.844732
10
31.423879
20
-13.445111
10
30.891792
20
-13.164468
10
30.30807
20
-13.019054
10
29.70651
20
-13.017287
10
29.121944
20
-13.15927
10
28.588218
20
-13.436781
10
28.136234
20
-13.833754
10
27.792162
20
-14.327203
10
27.575926
20
-14.888557
10
27.5
20
-15.5
10
27.5
20
-34.5
10
27.572375
20
-35.097192
10
27.785311
20
-35.659807
10
28.126477
20
-36.155268
10
28.576121
20
-36.554889
10
29.108208
20
-36.835532
10
29.69193
20
-36.980946
10
30.29349
20
-36.982713
10
30.878056
20
-36.84073
10
31.411782
20
-36.563219
10
31.863766
20
-36.166246
10
32.207838
20
-35.672797
10
32.424074
20
-35.111443
10
32.5
20
-34.5
0
LWPOLYLINE
100
AcDbEntity
8
CUT
100
AcDbPolyline
90
28
70
1
10
20.5
20
-15.5
10
20.427625
20
-14.902808
10
20.214689
20
-14.340193
10
19.873523
20
-13.844732
10
19.423879
20
-13.445111
10
18.891792
20
-13.164468
10
18.30807
20
-13.019054
10
17.70651
20
-13.017287
10
17.121944
20
-13.15927
10
16.588218
20
-13.436781
10
16.136234
20
-13.833754
10
15.792162
20
-14.327203
10
15.575926
20
-14.888557
10
15.5
20
-15.5
10
15.5
20
-34.5
10
15.572375
20
-35.097192
10
15.785311
20
-35.659807
10
16.126477
20
-36.155268
10
16.576121
20
-36.554889
10
17.108208
20
-36.835532
10
17.69193
20
-36.980946
10
18.29349
20
-36.982713
10
18.878056
20
-36.84073
10
19.411782
20
-36.563219
10
19.863766
20
-36.166246
10
20.207838
20
-35.672797
10
20.424074
20
-35.111443
10
20.5
20
-34.5
0
LWPOLYLINE
100
AcDbEntity
8
CUT
100
AcDbPolyline
90
30
70
1
10
-19.0
20
-54.0
10
-19.072434
20
-53.344747
10
-19.286238
20
-52.721135
10
-19.631087
20
-52.159279
10
-20.09033
20
-51.68631
10
-20.641789
20
-51.325068
10
-21.258835
20
-51.092996
10
-21.911672
20
-51.001301
10
-22.568773
20
-51.054411
10
-23.198409
20
-51.249761
10
-23.770175
20
-51.577918
10
-24.256461
20
-52.023036
10
-24.633783
20
-52.56362
10
-24.883922
20
-53.173566
10
-25.0
20
-54.0
10
-25.0
20
-76.0
10
-24.927566
20
-76.655253
10
-24.713762
20
-77.278865
10
-24.368913
20
-77.840721
10
-23.90967
20
-78.31369
10
-23.358211
20
-78.674932
10
-22.741165
20
-78.907004
10
-22.088328
20
-78.998699
10
-21.431227
20
-78.945589
10
-20.801591
20
-78.750239
10
-20.229825
20
-78.422082
10
-19.743539
20
-77.976964
10
-19.366217
20
-77.43638
10
-19.116078
20
-76.826434
10
-19.0
20
-76.0
0
LWPOLYLINE
100
AcDbEntity
8
CUT
100
AcDbPolyline
90
30
70
1
10
-37.0
20
-54.0
10
-37.072434
20
-53.344747
10
-37.286238
20
-52.721135
10
-37.631087
20
-52.159279
10
-38.09033
20
-51.68631
10
-38.641789
20
-51.325068
10
-39.258835
20
-51.092996
10
-39.911672
20
-51.001301
10
-40.568773
20
-51.054411
10
-41.198409
20
-51.249761
10
-41.770175
20
-51.577918
10
-42.256461
20
-52.023036
10
-42.633783
20
-52.56362
10
-42.883922
20
-53.173566
10
-43.0
20
-54.0
10
-43.0
20
-76.0
10
-42.927566
20
-76.655253
10
-42.713762
20
-77.278865
10
-42.368913
20
-77.840721
10
-41.90967
20
-78.31369
10
-41.358211
20
-78.674932
10
-40.741165
20
-78.907004
10
-40.088328
20
-78.998699
10
-39.431227
20
-78.945589
10
-38.801591
20
-78.750239
10
-38.229825
20
-78.422082
10
-37.743539
20
-77.976964
10
-37.366217
20
-77.43638
10
-37.116078
20
-76.826434
10
-37.0
20
-76.0
0
LWPOLYLINE
100
AcDbEntity
8
CUT
100
AcDbPolyline
90
30
70
1
10
-55.0
20
-54.0
10
-55.072434
20
-53.344747
10
-55.286238
20
-52.721135
10
-55.631087
20
-52.159279
10
-56.09033
20
-51.68631
10
-56.641789
20
-51.325068
10
-57.258835
20
-51.092996
10
-57.911672
20
-51.001301
10
-58.568773
20
-51.054411
10
-59.198409
20
-51.249761
10
-59.770175
20
-51.577918
10
-60.256461
20
-52.023036
10
-60.633783
20
-52.56362
10
-60.883922
20
-53.173566
10
-61.0
20
-54.0
10
-61.0
20
-76.0
10
-60.927566
20
-76.655253
10
-60.713762
20
-77.278865
10
-60.368913
20
-77.840721
10
-59.90967
20
-78.31369
10
-59.358211
20
-78.674932
10
-58.741165
20
-78.907004
10
-58.088328
20
-78.998699
10
-57.431227
20
-78.945589
10
-56.801591
20
-78.750239
10
-56.229825
20
-78.422082
10
-55.743539
20
-77.976964
10
-55.366217
20
-77.43638
10
-55.116078
20
-76.826434
10
-55.0
20
-76.0
0
LWPOLYLINE
100
AcDbEntity
8
CUT
100
AcDbPolyline
90
28
70
1
10
-85.5
20
-55.5
10
-85.572375
20
-54.902808
10
-85.785311
20
-54.340193
10
-86.126477
20
-53.844732
10
-86.576121
20
-53.445111
10
-87.108208
20
-53.164468
10
-87.69193
20
-53.019054
10
-88.29349
20
-53.017287
10
-88.878056
20
-53.15927
10
-89.411782
20
-53.436781
10
-89.863766
20
-53.833754
10
-90.207838
20
-54.327203
10
-90.424074
20
-54.888557
10
-90.5
20
-55.5
10
-90.5
20
-74.5
10
-90.427625
20
-75.097192
10
-90.214689
20
-75.659807
10
-89.873523
20
-76.155268
10
-89.423879
20
-76.554889
10
-88.891792
20
-76.835532
10
-88.30807
20
-76.980946
10
-87.70651
20
-76.982713
10
-87.121944
20
-76.84073
10
-86.588218
20
-76.563219
10
-86.136234
20
-76.166246
10
-85.792162
20
-75.672797
10
-85.575926
20
-75.111443
10
-85.5
20
-74.5
0
LWPOLYLINE
100
AcDbEntity
8
CUT
100
AcDbPolyline
90
25
70
1
10
-65.7
20
-55.0
10
-65.772345
20
-54.427678
10
-65.984828
20
-53.89136
10
-66.324083
20
-53.424785
10
-66.768767
20
-53.057305
10
-67.290906
20
-52.812036
10
-67.857654
20
-52.704409
10
-68.433356
20
-52.741194
10
-68.981796
20
-52.920078
10
-69.468473
20
-53.229806
10
-69.862771
20
-53.650895
10
-70.139884
20
-54.156853
10
-70.28238
20
-54.715853
10
-70.281296
20
-55.292728
10
-70.136698
20
-55.851188
10
-69.857684
20
-56.356101
10
-69.461805
20
-56.775704
10
-68.973967
20
-57.0836
10
-68.424858
20
-57.260419
10
-67.849021
20
-57.295039
10
-67.282683
20
-57.185282
10
-66.76147
20
-56.938051
10
-66.318171
20
-56.568901
10
-65.980673
20
-56.101053
10
-65.770208
20
-55.56394
0
LWPOLYLINE
100
AcDbEntity
8
CUT
100
AcDbPolyline
90
30
70
1
10
-19.0
20
-14.0
10
-19.072434
20
-13.344747
10
-19.286238
20
-12.721135
10
-19.631087
20
-12.159279
10
-20.09033
20
-11.68631
10
-20.641789
20
-11.325068
10
-21.258835
20
-11.092996
10
-21.911672
20
-11.001301
10
-22.568773
20
-11.054411
10
-23.198409
20
-11.249761
10
-23.770175
20
-11.577918
10
-24.256461
20
-12.023036
10
-24.633783
20
-12.56362
10
-24.883922
20
-13.173566
10
-25.0
20
-14.0
10
-25.0
20
-36.0
10
-24.927566
20
-36.655253
10
-24.713762
20
-37.278865
10
-24.368913
20
-37.840721
10
-23.90967
20
-38.31369
10
-23.358211
20
-38.674932
10
-22.741165
20
-38.907004
10
-22.088328
20
-38.998699
10
-21.431227
20
-38.945589
10
-20.801591
20
-38.750239
10
-20.229825
20
-38.422082
10
-19.743539
20
-37.976964
10
-19.366217
20
-37.43638
10
-19.116078
20
-36.826434
10
-19.0
20
-36.0
0
LWPOLYLINE
100
AcDbEntity
8
CUT
100
AcDbPolyline
90
30
70
1
10
-37.0
20
-14.0
10
-37.072434
20
-13.344747
10
-37.286238
20
-12.721135
10
-37.631087
20
-12.159279
10
-38.09033
20
-11.68631
10
-38.641789
20
-11.325068
10
-39.258835
20
-11.092996
10
-39.911672
20
-11.001301
10
-40.568773
20
-11.054411
10
-41.198409
20
-11.249761
10
-41.770175
20
-11.577918
10
-42.256461
20
-12.023036
10
-42.633783
20
-12.56362
10
-42.883922
20
-13.173566
10
-43.0
20
-14.0
10
-43.0
20
-36.0
10
-42.927566
20
-36.655253
10
-42.713762
20
-37.278865
10
-42.368913
20
-37.840721
10
-41.90967
20
-38.31369
10
-41.358211
20
-38.674932
10
-40.741165
20
-38.907004
10
-40.088328
20
-38.998699
10
-39.431227
20
-38.945589
10
-38.801591
20
-38.750239
10
-38.229825
20
-38.422082
10
-37.743539
20
-37.976964
10
-37.366217
20
-37.43638
10
-37.116078
20
-36.826434
10
-37.0
20
-36.0
0
LWPOLYLINE
100
AcDbEntity
8
CUT
100
AcDbPolyline
90
30
70
1
10
-55.0
20
-14.0
10
-55.072434
20
-13.344747
10
-55.286238
20
-12.721135
10
-55.631087
20
-12.159279
10
-56.09033
20
-11.68631
10
-56.641789
20
-11.325068
10
-57.258835
20
-11.092996
10
-57.911672
20
-11.001301
10
-58.568773
20
-11.054411
10
-59.198409
20
-11.249761
10
-59.770175
20
-11.577918
10
-60.256461
20
-12.023036
10
-60.633783
20
-12.56362
10
-60.883922
20
-13.173566
10
-61.0
20
-14.0
10
-61.0
20
-36.0
10
-60.927566
20
-36.655253
10
-60.713762
20
-37.278865
10
-60.368913
20
-37.840721
10
-59.90967
20
-38.31369
10
-59.358211
20
-38.674932
10
-58.741165
20
-38.907004
10
-58.088328
20
-38.998699
10
-57.431227
20
-38.945589
10
-56.801591
20
-38.750239
10
-56.229825
20
-38.422082
10
-55.743539
20
-37.976964
10
-55.366217
20
-37.43638
10
-55.116078
20
-36.826434
10
-55.0
20
-36.0
0
LWPOLYLINE
100
AcDbEntity
8
CUT
100
AcDbPolyline
90
28
70
1
10
-85.5
20
-15.5
10
-85.572375
20
-14.902808
10
-85.785311
20
-14.340193
10
-86.126477
20
-13.844732
10
-86.576121
20
-13.445111
10
-87.108208
20
-13.164468
10
-87.69193
20
-13.019054
10
-88.29349
20
-13.017287
10
-88.878056
20
-13.15927
10
-89.411782
20
-13.436781
10
-89.863766
20
-13.833754
10
-90.207838
20
-14.327203
10
-90.424074
20
-14.888557
10
-90.5
20
-15.5
10
-90.5
20
-34.5
10
-90.427625
20
-35.097192
10
-90.214689
20
-35.659807
10
-89.873523
20
-36.155268
10
-89.423879
20
-36.554889
10
-88.891792
20
-36.835532
10
-88.30807
20
-36.980946
10
-87.70651
20
-36.982713
10
-87.121944
20
-36.84073
10
-86.588218
20
-36.563219
10
-86.136234
20
-36.166246
10
-85.792162
20
-35.672797
10
-85.575926
20
-35.111443
10
-85.5
20
-34.5
0
LWPOLYLINE
100
AcDbEntity
8
CUT
100
AcDbPolyline
90
28
70
1
10
90.5
20
54.5
10
90.427625
20
55.097192
10
90.214689
20
55.659807
10
89.873523
20
56.155268
10
89.423879
20
56.554889
10
88.891792
20
56.835532
10
88.30807
20
56.980946
10
87.70651
20
56.982713
10
87.121944
20
56.84073
10
86.588218
20
56.563219
10
86.136234
20
56.166246
10
85.792162
20
55.672797
10
85.575926
20
55.111443
10
85.5
20
54.5
10
85.5
20
35.5
10
85.572375
20
34.902808
10
85.785311
20
34.340193
10
86.126477
20
33.844732
10
86.576121
20
33.445111
10
87.108208
20
33.164468
10
87.69193
20
33.019054
10
88.29349
20
33.017287
10
88.878056
20
33.15927
10
89.411782
20
33.436781
10
89.863766
20
33.833754
10
90.207838
20
34.327203
10
90.424074
20
34.888557
10
90.5
20
35.5
0
LWPOLYLINE
100
AcDbEntity
8
CUT
100
AcDbPolyline
90
28
70
1
10
32.5
20
54.5
10
32.427625
20
55.097192
10
32.214689
20
55.659807
10
31.873523
20
56.155268
10
31.423879
20
56.554889
10
30.891792
20
56.835532
10
30.30807
20
56.980946
10
29.70651
20
56.982713
10
29.121944
20
56.84073
10
28.588218
20
56.563219
10
28.136234
20
56.166246
10
27.792162
20
55.672797
10
27.575926
20
55.111443
10
27.5
20
54.5
10
27.5
20
35.5
10
27.572375
20
34.902808
10
27.785311
20
34.340193
10
28.126477
20
33.844732
10
28.576121
20
33.445111
10
29.108208
20
33.164468
10
29.69193
20
33.019054
10
30.29349
20
33.017287
10
30.878056
20
33.15927
10
31.411782
20
33.436781
10
31.863766
20
33.833754
10
32.207838
20
34.327203
10
32.424074
20
34.888557
10
32.5
20
35.5
0
LWPOLYLINE
100
AcDbEntity
8
CUT
100
AcDbPolyline
90
28
70
1
10
20.5
20
54.5
10
20.427625
20
55.097192
10
20.214689
20
55.659807
10
19.873523
20
56.155268
10
19.423879
20
56.554889
10
18.891792
20
56.835532
10
18.30807
20
56.980946
10
17.70651
20
56.982713
10
17.121944
20
56.84073
10
16.588218
20
56.563219
10
16.136234
20
56.166246
10
15.792162
20
55.672797
10
15.575926
20
55.111443
10
15.5
20
54.5
10
15.5
20
35.5
10
15.572375
20
34.902808
10
15.785311
20
34.340193
10
16.126477
20
33.844732
10
16.576121
20
33.445111
10
17.108208
20
33.164468
10
17.69193
20
33.019054
10
18.29349
20
33.017287
10
18.878056
20
33.15927
10
19.411782
20
33.436781
10
19.863766
20
33.833754
10
20.207838
20
34.327203
10
20.424074
20
34.888557
10
20.5
20
35.5
0
LWPOLYLINE
100
AcDbEntity
8
CUT
100
AcDbPolyline
90
25
70
1
10
70.3
20
55.0
10
70.227655
20
55.572322
10
70.015172
20
56.10864
10
69.675917
20
56.575215
10
69.231233
20
56.942695
10
68.709094
20
57.187964
10
68.142346
20
57.295591
10
67.566644
20
57.258806
10
67.018204
20
57.079922
10
66.531527
20
56.770194
10
66.137229
20
56.349105
10
65.860116
20
55.843147
10
65.71762
20
55.284147
10
65.718704
20
54.707272
10
65.863302
20
54.148812
10
66.142316
20
53.643899
10
66.538195
20
53.224296
10
67.026033
20
52.9164
10
67.575142
20
52.739581
10
68.150979
20
52.704961
10
68.717317
20
52.814718
10
69.23853
20
53.061949
10
69.681829
20
53.431099
10
70.019327
20
53.898947
10
70.229792
20
54.43606
0
LWPOLYLINE
100
AcDbEntity
8
CUT
100
AcDbPolyline
90
28
70
1
10
90.5
20
94.5
10
90.427625
20
95.097192
10
90.214689
20
95.659807
10
89.873523
20
96.155268
10
89.423879
20
96.554889
10
88.891792
20
96.835532
10
88.30807
20
96.980946
10
87.70651
20
96.982713
10
87.121944
20
96.84073
10
86.588218
20
96.563219
10
86.136234
20
96.166246
10
85.792162
20
95.672797
10
85.575926
20
95.111443
10
85.5
20
94.5
10
85.5
20
75.5
10
85.572375
20
74.902808
10
85.785311
20
74.340193
10
86.126477
20
73.844732
10
86.576121
20
73.445111
10
87.108208
20
73.164468
10
87.69193
20
73.019054
10
88.29349
20
73.017287
10
88.878056
20
73.15927
10
89.411782
20
73.436781
10
89.863766
20
73.833754
10
90.207838
20
74.327203
10
90.424074
20
74.888557
10
90.5
20
75.5
0
LWPOLYLINE
100
AcDbEntity
8
CUT
100
AcDbPolyline
90
28
70
1
10
32.5
20
94.5
10
32.427625
20
95.097192
10
32.214689
20
95.659807
10
31.873523
20
96.155268
10
31.423879
20
96.554889
10
30.891792
20
96.835532
10
30.30807
20
96.980946
10
29.70651
20
96.982713
10
29.121944
20
96.84073
10
28.588218
20
96.563219
10
28.136234
20
96.166246
10
27.792162
20
95.672797
10
27.575926
20
95.111443
10
27.5
20
94.5
10
27.5
20
75.5
10
27.572375
20
74.902808
10
27.785311
20
74.340193
10
28.126477
20
73.844732
10
28.576121
20
73.445111
10
29.108208
20
73.164468
10
29.69193
20
73.019054
10
30.29349
20
73.017287
10
30.878056
20
73.15927
10
31.411782
20
73.436781
10
31.863766
20
73.833754
10
32.207838
20
74.327203
10
32.424074
20
74.888557
10
32.5
20
75.5
0
LWPOLYLINE
100
AcDbEntity
8
CUT
100
AcDbPolyline
90
28
70
1
10
20.5
20
94.5
10
20.427625
20
95.097192
10
20.214689
20
95.659807
10
19.873523
20
96.155268
10
19.423879
20
96.554889
10
18.891792
20
96.835532
10
18.30807
20
96.980946
10
17.70651
20
96.982713
10
17.121944
20
96.84073
10
16.588218
20
96.563219
10
16.136234
20
96.166246
10
15.792162
20
95.672797
10
15.575926
20
95.111443
10
15.5
20
94.5
10
15.5
20
75.5
10
15.572375
20
74.902808
10
15.785311
20
74.340193
10
16.126477
20
73.844732
10
16.576121
20
73.445111
10
17.108208
20
73.164468
10
17.69193
20
73.019054
10
18.29349
20
73.017287
10
18.878056
20
73.15927
10
19.411782
20
73.436781
10
19.863766
20
73.833754
10
20.207838
20
74.327203
10
20.424074
20
74.888557
10
20.5
20
75.5
0
LWPOLYLINE
100
AcDbEntity
8
CUT
100
AcDbPolyline
90
28
70
1
10
-85.5
20
54.5
10
-85.572375
20
55.097192
10
-85.785311
20
55.659807
10
-86.126477
20
56.155268
10
-86.576121
20
56.554889
10
-87.108208
20
56.835532
10
-87.69193
20
56.980946
10
-88.29349
20
56.982713
10
-88.878056
20
56.84073
10
-89.411782
20
56.563219
10
-89.863766
20
56.166246
10
-90.207838
20
55.672797
10
-90.424074
20
55.111443
10
-90.5
20
54.5
10
-90.5
20
35.5
10
-90.427625
20
34.902808
10
-90.214689
20
34.340193
10
-89.873523
20
33.844732
10
-89.423879
20
33.445111
10
-88.891792
20
33.164468
10
-88.30807
20
33.019054
10
-87.70651
20
33.017287
10
-87.121944
20
33.15927
10
-86.588218
20
33.436781
10
-86.136234
20
33.833754
10
-85.792162
20
34.327203
10
-85.575926
20
34.888557
10
-85.5
20
35.5
0
LWPOLYLINE
100
AcDbEntity
8
CUT
100
AcDbPolyline
90
25
70
1
10
-65.7
20
55.0
10
-65.772345
20
55.572322
10
-65.984828
20
56.10864
10
-66.324083
20
56.575215
10
-66.768767
20
56.942695
10
-67.290906
20
57.187964
10
-67.857654
20
57.295591
10
-68.433356
20
57.258806
10
-68.981796
20
57.079922
10
-69.468473
20
56.770194
10
-69.862771
20
56.349105
10
-70.139884
20
55.843147
10
-70.28238
20
55.284147
10
-70.281296
20
54.707272
10
-70.136698
20
54.148812
10
-69.857684
20
53.643899
10
-69.461805
20
53.224296
10
-68.973967
20
52.9164
10
-68.424858
20
52.739581
10
-67.849021
20
52.704961
10
-67.282683
20
52.814718
10
-66.76147
20
53.061949
10
-66.318171
20
53.431099
10
-65.980673
20
53.898947
10
-65.770208
20
54.43606
0
LWPOLYLINE
100
AcDbEntity
8
CUT
100
AcDbPolyline
90
28
70
1
10
-85.5
20
94.5
10
-85.572375
20
95.097192
10
-85.785311
20
95.659807
10
-86.126477
20
96.155268
10
-86.576121
20
96.554889
10
-87.108208
20
96.835532
10
-87.69193
20
96.980946
10
-88.29349
20
96.982713
10
-88.878056
20
96.84073
10
-89.411782
20
96.563219
10
-89.863766
20
96.166246
10
-90.207838
20
95.672797
10
-90.424074
20
95.111443
10
-90.5
20
94.5
10
-90.5
20
75.5
10
-90.427625
20
74.902808
10
-90.214689
20
74.340193
10
-89.873523
20
73.844732
10
-89.423879
20
73.445111
10
-88.891792
20
73.164468
10
-88.30807
20
73.019054
10
-87.70651
20
73.017287
10
-87.121944
20
73.15927
10
-86.588218
20
73.436781
10
-86.136234
20
73.833754
10
-85.792162
20
74.327203
10
-85.575926
20
74.888557
10
-85.5
20
75.5
0
ENDSEC
0
EOF
